<?xml version="1.0" encoding="UTF-8"?>
<svg id="Layer_2" data-name="Layer 2" xmlns="http://www.w3.org/2000/svg" viewBox="0 0 331.08 100.15">
  <defs>
    <style>
      .cls-1 {
        fill: #028141;
      }
    </style>
  </defs>
  <g id="Layer_3" data-name="Layer 3">
    <path class="cls-1" d="M82.21,3.16C80.86,1.12,79.06,0,77,0c-3.14.01-6.72,2.49-10.52,7.64-6.42,8.72-13.51,25.2-21.6,44.4-3.2-5.51-10.66-13.53-21.3-13.54-2.63,0-5.43.49-8.4,1.63C3.8,44.47,0,54.98,0,62.05,0,74.08,9.11,84.03,20.06,84.26c.12,0,.24,0,.35,0,6.52,0,11.12-3.56,14.07-7.09,2.13-2.55,3.42-5.08,3.97-6.31,4.42,10.74,9.1,19.44,12.37,23.56,2.95,3.7,6.12,5.72,9.25,5.73h0c2.96,0,5.78-1.84,8.17-5.56,6.49-10.05,10.98-25.23,14.22-39.8,1.91-8.62,3.21-20.7,3.21-31.3,0-4.19-.2-8.15-.65-11.57-.5-3.78-1.46-6.74-2.82-8.77M36.61,69.59c-1.49,2.93-5.24,8.91-11.04,10.17-.68.15-1.4.23-2.16.23-5.2,0-11.67-3.62-13.04-11.1-.17-.92-.26-1.88-.26-2.84,0-5.4,2.74-10.98,9.18-13.03,1.05-.33,2.08-.49,3.09-.49,6.14-.02,11.57,6.09,14.93,15.59-.09.22-.32.75-.7,1.48M74.99,63.97c-3.22,4.79-7.29,7.02-10.77,7.02-.23,0-.45,0-.68-.03-8.54-.68-14.8-12.07-17.25-16.52,1.62-3.93,4.33-10.32,8.06-15.96,3.77-5.72,8.59-10.63,14.26-11.48.49-.08.97-.11,1.43-.11,3.31,0,5.91,1.83,7.72,4.62,1.81,2.79,2.79,6.52,2.79,10.19,0,10.14-2.34,17.48-5.55,22.27M120.47,53.95l2.35.77c.67.26,1.08.77,1.08,1.65,0,.46-.1.98-.31,1.6l-6.65,16.9-7.22-22.67h-10.15c-.21.62-.08,1.53.04,2.01,2.42.83,3.21.63,4.06,2.88l8.73,24.64,5.15-1.49,8.97-21.44c.93-2.37,1.9-4.33,2.78-5.31.06-.2.06-1.08.06-1.29h-8.84c-.15.62-.15,1.08-.06,1.75M188.28,76.52l-.26-10.2v-11.8c0-2.01-1.29-2.89-3.3-2.89-2.47,0-5.47.67-7.99,1.39v2.06h4.27v11.18l-.16,7.73c-1.6.72-3.7,1.7-6.71,1.7-3.43,0-3.91-2.5-3.96-5.49v-15.74c0-1.96-1.13-2.83-3.25-2.83-2.42,0-5.36.62-8.2,1.39v2.06h4.38v16.18c0,4.84.56,9.54,8.2,9.54,4.02,0,6.96-2.26,9.58-4.84.05,2.99,1.49,4.74,4.23,4.74,3.4,0,5.87-1.59,7.73-2.73l-.16-1.44h-4.43ZM221.45,76.52l-.21-10.56v-27.57c0-2.06-.73-2.58-2.68-2.58-2.42,0-6.29.52-9.07,1.09v2.42h4.74v12.93c-1.24-.21-2.47-.36-4.43-.36-8.09,0-14.53,5.97-14.53,15.46,0,10.82,5.57,13.45,11.13,13.45,3.5,0,6.03-2.01,7.78-3.96,0,1.9.67,3.96,3.29,3.96,3.81,0,6.4-1.29,8.61-2.52l-.36-1.75h-4.27ZM214.23,65.91l-.15,8.71c-1.29.42-2.89,1.08-4.74,1.08-3.91,0-6.64-2.94-6.64-9.43,0-7.58,1.96-11.24,7.26-11.24,2.01,0,3.2.47,4.28.83v10.05ZM241.82,51.58c-7.89,0-14.12,7.63-14.12,15.15,0,9.79,5.16,14.06,13.66,14.06s14.28-7.62,14.28-15.1c0-9.64-4.64-14.12-13.81-14.12M242.18,77.51c-5.57,0-7-5.67-7-11.75,0-5.56,1.39-10.98,6.23-10.98,5.47,0,6.65,5.46,6.65,11.96,0,5.36-.92,10.77-5.88,10.77M270.68,75.75l-.1-9.48v-12.37c0-1.81-.82-2.27-2.42-2.27-2.47,0-6.55.51-9.33,1.13v2.37h4.74v11.13l-.15,9.12c0,1.14-.46,2.01-1.39,2.32l-3.15.98c0,.67.1.98.21,1.65h15.97c.26-.67.31-1.29.31-1.8l-3.82-.93c-.57-.15-.88-.52-.88-1.86M331.08,64.93c0-7.32-3.5-13.45-11.6-13.45-8.56,0-14.39,7.45-14.39,15.6s5.12,13.72,14.45,13.72c4.8,0,8.97-2,11.18-4.64l-.77-1.75c-3.09.72-5.93,1.06-7.84,1.06-5.41,0-9.22-2.3-9.68-9.31h18.65v-1.24ZM312.37,63.38c.15-6.08,2.63-8.86,5.93-8.86,3.81,0,5.25,3.66,5.25,8.86h-11.18ZM266.97,45.5c2.29,0,4.14-1.86,4.14-4.15s-1.85-4.15-4.14-4.15-4.15,1.86-4.15,4.15,1.86,4.15,4.15,4.15M285.17,57.77c0-2.01,1.55-3.3,4.33-3.3,5.06,0,6.17,2.79,6.89,5.93l1.7.15.87-6.85c-3.04-1.55-5.63-2.16-8.96-2.16-5.77,0-10.87,3.45-10.87,8.81,0,9.63,14.54,8.96,14.54,13.76,0,2.37-1.97,3.71-4.81,3.71-4,0-6.62-2.78-7.29-6.8l-2.01-.05-.46,7.63c3.09,1.39,6.02,2.21,9.66,2.21,5.31,0,11.76-2.52,11.76-9.27,0-8.92-15.37-8.24-15.37-13.76M153.91,76.52l-.36-10.31v-6.65c0-7.06-5.93-7.98-10.16-7.98s-8.87,2.32-10.97,3.81l.78,2.01c2.68-.72,5.2-1.08,7.06-1.08,4.22,0,6.34,1.33,6.34,4.84v3.37l-4.54.52c-5.56.67-11.65,2.42-11.65,9.19,0,3.61,2.68,6.56,7.01,6.56s7.42-2.58,9.27-4.85c.21,2.99,1.19,4.79,4.95,4.79,2.01,0,5.15-1.34,6.75-2.83l-.2-1.39h-4.28ZM146.6,74.41c-1.65.77-3.46,1.44-5.62,1.44s-3.51-1.44-3.51-3.62c0-2.78,2.68-4.3,5.92-4.81l3.2-.57v7.56Z"/>
  </g>
</svg>